<svg width="155" height="32" viewBox="0 0 155 32" fill="none" xmlns="http://www.w3.org/2000/svg">
<path d="M45.7992 10.7514C45.752 11.3533 45.7167 11.9315 45.6931 12.4862C45.6813 13.0409 45.6754 13.4657 45.6754 13.7608C45.6754 14.0204 45.6813 14.2682 45.6931 14.5042C45.7049 14.7403 45.7167 14.9409 45.7284 15.1061H45.3219C45.1333 14.1148 44.8917 13.33 44.5971 12.7517C44.3142 12.1735 43.9724 11.7663 43.5717 11.5303C43.171 11.2825 42.6996 11.1585 42.1575 11.1585H41.7509V21.2665C41.7509 21.7385 41.798 22.0926 41.8923 22.3286C41.9984 22.5646 42.187 22.7239 42.458 22.8066C42.7291 22.8774 43.1239 22.9187 43.6424 22.9305V23.2845C43.2771 23.2727 42.788 23.2609 42.1752 23.2491C41.5741 23.2373 40.9436 23.2314 40.2836 23.2314C39.6354 23.2314 39.0226 23.2373 38.4451 23.2491C37.8676 23.2609 37.4021 23.2727 37.0486 23.2845V22.9305C37.5789 22.9187 37.9796 22.8774 38.2507 22.8066C38.5217 22.7239 38.7044 22.5646 38.7987 22.3286C38.893 22.0926 38.9401 21.7385 38.9401 21.2665V11.1585H38.5512C38.0091 11.1585 37.5377 11.2825 37.1369 11.5303C36.7362 11.7663 36.3945 12.1735 36.1116 12.7517C35.8288 13.3182 35.5813 14.103 35.3692 15.1061H34.9626C34.9861 14.9409 34.9979 14.7403 34.9979 14.5042C35.0097 14.2682 35.0156 14.0204 35.0156 13.7608C35.0156 13.4657 35.0038 13.0409 34.9802 12.4862C34.9685 11.9315 34.939 11.3533 34.8918 10.7514C35.434 10.7632 36.0232 10.775 36.6596 10.7868C37.3078 10.7986 37.956 10.8045 38.6042 10.8045C39.2524 10.8045 39.8358 10.8045 40.3543 10.8045C40.8847 10.8045 41.4681 10.8045 42.1045 10.8045C42.7527 10.8045 43.4008 10.7986 44.049 10.7868C44.6972 10.775 45.2806 10.7632 45.7992 10.7514Z" fill="#020618"/>
<path d="M50.1676 9.44143V15.531C50.4622 14.9173 50.857 14.4924 51.352 14.2564C51.8588 14.0086 52.4244 13.8847 53.0491 13.8847C53.5558 13.8847 53.9624 13.9496 54.2689 14.0794C54.5753 14.1974 54.8169 14.3626 54.9936 14.5751C55.194 14.7993 55.3354 15.0884 55.4179 15.4425C55.5122 15.7965 55.5593 16.2745 55.5593 16.8763V21.6382C55.5593 22.1339 55.6418 22.4702 55.8068 22.6472C55.9836 22.8243 56.2782 22.9128 56.6907 22.9128V23.2845C56.4668 23.2727 56.125 23.2609 55.6654 23.2491C55.2176 23.2255 54.7815 23.2137 54.3572 23.2137C53.8976 23.2137 53.4498 23.2255 53.0137 23.2491C52.5894 23.2609 52.2712 23.2727 52.0591 23.2845V22.9128C52.4127 22.9128 52.6602 22.8243 52.8016 22.6472C52.943 22.4702 53.0137 22.1339 53.0137 21.6382V16.1328C53.0137 15.8378 52.9842 15.5841 52.9253 15.3717C52.8664 15.1474 52.7544 14.9763 52.5894 14.8583C52.4362 14.7285 52.2123 14.6636 51.9177 14.6636C51.5995 14.6636 51.3048 14.7521 51.0338 14.9291C50.7745 15.0943 50.5624 15.3303 50.3974 15.6372C50.2442 15.944 50.1676 16.2981 50.1676 16.6993V21.6382C50.1676 22.1339 50.2383 22.4702 50.3797 22.6472C50.5211 22.8243 50.7686 22.9128 51.1222 22.9128V23.2845C50.91 23.2727 50.5977 23.2609 50.1852 23.2491C49.7727 23.2255 49.3544 23.2137 48.9301 23.2137C48.4705 23.2137 48.0049 23.2255 47.5335 23.2491C47.0739 23.2609 46.7262 23.2727 46.4905 23.2845V22.9128C46.903 22.9128 47.1918 22.8243 47.3568 22.6472C47.5335 22.4702 47.6219 22.1339 47.6219 21.6382V11.5657C47.6219 11.0346 47.5394 10.6452 47.3744 10.3973C47.2212 10.1377 46.9266 10.0079 46.4905 10.0079V9.63615C46.8677 9.67156 47.233 9.68926 47.5866 9.68926C48.0698 9.68926 48.5294 9.67156 48.9655 9.63615C49.4015 9.58895 49.8022 9.52404 50.1676 9.44143Z" fill="#020618"/>
<path d="M61.8951 13.8847C62.9322 13.8847 63.7454 14.1915 64.3347 14.8052C64.9239 15.4189 65.2186 16.422 65.2186 17.8145H59.4025L59.3672 17.4782H62.9911C63.0029 16.8999 62.9676 16.3689 62.8851 15.885C62.8026 15.3894 62.6729 14.994 62.4962 14.699C62.3194 14.4039 62.0837 14.2564 61.789 14.2564C61.3765 14.2564 61.023 14.516 60.7284 15.0353C60.4455 15.5546 60.2746 16.4161 60.2157 17.6198L60.2687 17.726C60.2569 17.8677 60.2452 18.0152 60.2334 18.1686C60.2334 18.322 60.2334 18.4813 60.2334 18.6465C60.2334 19.4608 60.3453 20.1217 60.5693 20.6292C60.805 21.1367 61.0996 21.5084 61.4532 21.7444C61.8067 21.9687 62.1662 22.0808 62.5315 22.0808C62.779 22.0808 63.0324 22.0454 63.2917 21.9746C63.5627 21.8919 63.8338 21.7503 64.1049 21.5497C64.3759 21.3373 64.6293 21.0422 64.865 20.6646L65.1832 20.7708C65.0418 21.2193 64.8179 21.6559 64.5114 22.0808C64.205 22.5056 63.8161 22.8538 63.3447 23.1252C62.8733 23.3966 62.3076 23.5323 61.6476 23.5323C60.8462 23.5323 60.1391 23.3612 59.5263 23.019C58.9134 22.6767 58.4302 22.1575 58.0767 21.4612C57.7349 20.7649 57.564 19.8798 57.564 18.8059C57.564 17.7083 57.7467 16.7937 58.112 16.062C58.4891 15.3303 59.0018 14.7875 59.65 14.4334C60.31 14.0676 61.0583 13.8847 61.8951 13.8847Z" fill="#020618"/>
<path d="M76.0075 10.7514C78.3292 10.7514 80.0558 11.2825 81.1872 12.3446C82.3186 13.3949 82.8843 14.9055 82.8843 16.8763C82.8843 18.1627 82.6073 19.2897 82.0534 20.2574C81.4995 21.2134 80.6922 21.9569 79.6315 22.4879C78.5826 23.019 77.3216 23.2845 75.8484 23.2845C75.6599 23.2845 75.4124 23.2786 75.1059 23.2668C74.7995 23.255 74.4813 23.2491 74.1513 23.2491C73.8213 23.2373 73.5267 23.2314 73.2674 23.2314C72.7489 23.2314 72.2362 23.2373 71.7294 23.2491C71.2345 23.2491 70.8397 23.2609 70.545 23.2845V22.9305C70.9222 22.9069 71.205 22.8597 71.3936 22.7889C71.5821 22.718 71.7059 22.5764 71.7648 22.364C71.8355 22.1516 71.8709 21.8329 71.8709 21.4081V12.6278C71.8709 12.1912 71.8355 11.8725 71.7648 11.6719C71.7059 11.4595 71.5762 11.3179 71.3759 11.247C71.1873 11.1644 70.9104 11.1172 70.545 11.1054V10.7514C70.8397 10.7632 71.2345 10.7809 71.7294 10.8045C72.2362 10.8163 72.7371 10.8163 73.2321 10.8045C73.6563 10.7927 74.1337 10.7809 74.664 10.7691C75.2061 10.7573 75.654 10.7514 76.0075 10.7514ZM75.9898 11.07C75.4477 11.07 75.0942 11.1703 74.9292 11.371C74.7642 11.5716 74.6817 11.9787 74.6817 12.5924V21.4435C74.6817 22.0572 74.7642 22.4643 74.9292 22.6649C75.1059 22.8656 75.4654 22.9659 76.0075 22.9659C76.9975 22.9659 77.7753 22.7357 78.341 22.2755C78.9185 21.8034 79.331 21.1189 79.5785 20.222C79.826 19.3251 79.9497 18.2335 79.9497 16.9471C79.9497 15.6254 79.8142 14.5337 79.5431 13.6722C79.2838 12.7989 78.8655 12.1499 78.288 11.725C77.7105 11.2884 76.9445 11.07 75.9898 11.07Z" fill="#020618"/>
<path d="M86.4116 23.4084C85.8812 23.4084 85.4393 23.3081 85.0857 23.1075C84.7322 22.9069 84.4729 22.6413 84.3079 22.3109C84.1429 21.9687 84.0604 21.5969 84.0604 21.1957C84.0604 20.6882 84.1724 20.2751 84.3963 19.9565C84.632 19.6379 84.9325 19.3782 85.2979 19.1776C85.6632 18.977 86.0462 18.8118 86.4469 18.682C86.8594 18.5521 87.2483 18.4282 87.6137 18.3102C87.9908 18.1804 88.2913 18.0329 88.5152 17.8677C88.751 17.6906 88.8688 17.4664 88.8688 17.195V15.8142C88.8688 15.5074 88.8158 15.2359 88.7097 14.9999C88.6154 14.7521 88.4622 14.5633 88.2501 14.4334C88.0497 14.3036 87.7846 14.2387 87.4546 14.2387C87.2189 14.2387 86.9832 14.2741 86.7475 14.3449C86.5117 14.4039 86.3173 14.5101 86.1641 14.6636C86.4941 14.7816 86.7474 14.9645 86.9242 15.2123C87.1128 15.4484 87.2071 15.7198 87.2071 16.0266C87.2071 16.4279 87.0657 16.7465 86.7828 16.9825C86.5117 17.2186 86.1876 17.3366 85.8105 17.3366C85.3862 17.3366 85.0621 17.2068 84.8382 16.9471C84.6261 16.6757 84.52 16.3512 84.52 15.9735C84.52 15.6313 84.6025 15.348 84.7675 15.1238C84.9443 14.8996 85.1859 14.6872 85.4923 14.4865C85.8223 14.2977 86.2171 14.1502 86.6767 14.044C87.1481 13.9378 87.6549 13.8847 88.197 13.8847C88.7392 13.8847 89.2283 13.9437 89.6643 14.0617C90.1004 14.1679 90.4657 14.3685 90.7603 14.6636C91.0314 14.935 91.2082 15.2713 91.2907 15.6726C91.3732 16.062 91.4144 16.5577 91.4144 17.1596V21.9746C91.4144 22.2696 91.4439 22.4761 91.5028 22.5941C91.5618 22.7003 91.6619 22.7534 91.8034 22.7534C91.9094 22.7534 92.0096 22.7239 92.1039 22.6649C92.2099 22.6059 92.3219 22.5351 92.4398 22.4525L92.6165 22.7534C92.369 22.9659 92.0803 23.1311 91.7503 23.2491C91.4321 23.3553 91.0727 23.4084 90.672 23.4084C90.2359 23.4084 89.8882 23.3494 89.629 23.2314C89.3697 23.1016 89.1811 22.9305 89.0633 22.718C88.9572 22.5056 88.9042 22.2578 88.9042 21.9746C88.6213 22.423 88.2795 22.7771 87.8788 23.0367C87.4781 23.2845 86.989 23.4084 86.4116 23.4084ZM87.6667 22.2755C87.9024 22.2755 88.1145 22.2224 88.3031 22.1162C88.5035 21.9982 88.692 21.8093 88.8688 21.5497V17.9208C88.7627 18.0978 88.6154 18.2571 88.4269 18.3987C88.2383 18.5403 88.0379 18.6879 87.8258 18.8413C87.6137 18.9829 87.4074 19.1422 87.2071 19.3192C87.0185 19.4963 86.8653 19.7146 86.7475 19.9742C86.6296 20.2338 86.5707 20.5466 86.5707 20.9124C86.5707 21.3727 86.6708 21.7149 86.8712 21.9391C87.0715 22.1634 87.3367 22.2755 87.6667 22.2755Z" fill="#020618"/>
<path d="M96.7104 11.2293V14.1325H98.7964V14.4865H96.7104V21.6382C96.7104 21.9923 96.7752 22.246 96.9048 22.3994C97.0345 22.541 97.2289 22.6118 97.4882 22.6118C97.7003 22.6118 97.9125 22.5351 98.1246 22.3817C98.3368 22.2165 98.5253 21.9391 98.6903 21.5497L98.9908 21.709C98.8023 22.2401 98.5135 22.6767 98.1246 23.019C97.7475 23.3612 97.2289 23.5323 96.5689 23.5323C96.18 23.5323 95.8383 23.4792 95.5436 23.373C95.249 23.2786 95.0015 23.1311 94.8012 22.9305C94.5419 22.6708 94.371 22.3522 94.2885 21.9746C94.206 21.5851 94.1647 21.0835 94.1647 20.4699V14.4865H92.6798V14.1325H94.1647V11.7958C94.6597 11.7958 95.1135 11.7545 95.5259 11.6719C95.9502 11.5775 96.345 11.43 96.7104 11.2293Z" fill="#020618"/>
<path d="M103.829 13.8847C104.866 13.8847 105.679 14.1915 106.268 14.8052C106.857 15.4189 107.152 16.422 107.152 17.8145H101.336L101.301 17.4782H104.925C104.936 16.8999 104.901 16.3689 104.818 15.885C104.736 15.3894 104.606 14.994 104.43 14.699C104.253 14.4039 104.017 14.2564 103.722 14.2564C103.31 14.2564 102.956 14.516 102.662 15.0353C102.379 15.5546 102.208 16.4161 102.149 17.6198L102.202 17.726C102.19 17.8677 102.179 18.0152 102.167 18.1686C102.167 18.322 102.167 18.4813 102.167 18.6465C102.167 19.4608 102.279 20.1217 102.503 20.6292C102.738 21.1367 103.033 21.5084 103.387 21.7444C103.74 21.9687 104.1 22.0808 104.465 22.0808C104.712 22.0808 104.966 22.0454 105.225 21.9746C105.496 21.8919 105.767 21.7503 106.038 21.5497C106.309 21.3373 106.563 21.0422 106.798 20.6646L107.117 20.7708C106.975 21.2193 106.751 21.6559 106.445 22.0808C106.138 22.5056 105.75 22.8538 105.278 23.1252C104.807 23.3966 104.241 23.5323 103.581 23.5323C102.78 23.5323 102.073 23.3612 101.46 23.019C100.847 22.6767 100.364 22.1575 100.01 21.4612C99.6683 20.7649 99.4974 19.8798 99.4974 18.8059C99.4974 17.7083 99.6801 16.7937 100.045 16.062C100.423 15.3303 100.935 14.7875 101.583 14.4334C102.243 14.0676 102.992 13.8847 103.829 13.8847Z" fill="#020618"/>
<path d="M118.896 10.5036C119.673 10.5036 120.31 10.6216 120.805 10.8576C121.312 11.0818 121.759 11.3474 122.148 11.6542C122.384 11.8312 122.561 11.8548 122.679 11.725C122.808 11.5834 122.897 11.2589 122.944 10.7514H123.35C123.327 11.2116 123.309 11.7722 123.297 12.4331C123.286 13.0822 123.28 13.9496 123.28 15.0353H122.873C122.814 14.4924 122.738 14.0322 122.643 13.6545C122.549 13.2651 122.419 12.9229 122.254 12.6278C122.089 12.3328 121.854 12.0672 121.547 11.8312C121.253 11.5362 120.911 11.3179 120.522 11.1762C120.133 11.0346 119.726 10.9638 119.302 10.9638C118.666 10.9638 118.124 11.1349 117.676 11.4772C117.228 11.8076 116.863 12.262 116.58 12.8402C116.309 13.4185 116.108 14.0735 115.979 14.8052C115.849 15.5251 115.784 16.2745 115.784 17.0534C115.784 17.8441 115.849 18.6052 115.979 19.3369C116.12 20.0568 116.332 20.7 116.615 21.2665C116.91 21.8329 117.287 22.2814 117.746 22.6118C118.206 22.9423 118.748 23.1075 119.373 23.1075C119.762 23.1075 120.151 23.0367 120.54 22.8951C120.94 22.7416 121.282 22.5233 121.565 22.2401C122.025 21.886 122.337 21.4494 122.502 20.9301C122.667 20.3991 122.791 19.6969 122.873 18.8236H123.28C123.28 19.9447 123.286 20.8534 123.297 21.5497C123.309 22.2342 123.327 22.8125 123.35 23.2845H122.944C122.897 22.7771 122.814 22.4584 122.696 22.3286C122.59 22.1988 122.408 22.2165 122.148 22.3817C121.712 22.6885 121.247 22.96 120.752 23.196C120.269 23.4202 119.644 23.5323 118.878 23.5323C117.629 23.5323 116.533 23.2786 115.59 22.7711C114.659 22.2637 113.934 21.532 113.415 20.5761C112.897 19.6202 112.638 18.4695 112.638 17.1242C112.638 15.8024 112.903 14.6459 113.433 13.6545C113.975 12.6632 114.712 11.8902 115.643 11.3356C116.586 10.7809 117.67 10.5036 118.896 10.5036Z" fill="#020618"/>
<path d="M130.847 13.8847C131.224 13.8847 131.531 13.9673 131.767 14.1325C132.002 14.2859 132.173 14.4865 132.279 14.7344C132.397 14.9822 132.456 15.2418 132.456 15.5133C132.456 15.9499 132.326 16.3099 132.067 16.5931C131.82 16.8645 131.49 17.0002 131.077 17.0002C130.665 17.0002 130.34 16.8999 130.105 16.6993C129.881 16.4869 129.769 16.2096 129.769 15.8673C129.769 15.5369 129.84 15.2654 129.981 15.053C130.134 14.8288 130.323 14.64 130.547 14.4865C130.382 14.4393 130.217 14.4452 130.052 14.5042C129.828 14.5396 129.616 14.6341 129.415 14.7875C129.215 14.9291 129.044 15.112 128.903 15.3362C128.761 15.5487 128.649 15.7847 128.567 16.0443C128.484 16.2922 128.443 16.5341 128.443 16.7701V21.4612C128.443 22.0277 128.579 22.4112 128.85 22.6118C129.132 22.8125 129.551 22.9128 130.105 22.9128V23.2845C129.834 23.2727 129.439 23.2609 128.92 23.2491C128.402 23.2255 127.86 23.2137 127.294 23.2137C126.823 23.2137 126.345 23.2255 125.862 23.2491C125.379 23.2609 125.014 23.2727 124.766 23.2845V22.9128C125.179 22.9128 125.467 22.8243 125.632 22.6472C125.809 22.4702 125.897 22.1339 125.897 21.6382V16.062C125.897 15.531 125.815 15.1415 125.65 14.8937C125.497 14.6341 125.202 14.5042 124.766 14.5042V14.1325C125.143 14.1679 125.508 14.1856 125.862 14.1856C126.357 14.1856 126.817 14.1679 127.241 14.1325C127.677 14.0853 128.078 14.0204 128.443 13.9378V15.5841C128.584 15.2654 128.773 14.9763 129.009 14.7167C129.244 14.457 129.516 14.2564 129.822 14.1148C130.128 13.9614 130.47 13.8847 130.847 13.8847Z" fill="#020618"/>
<path d="M137.337 13.8847C138.374 13.8847 139.188 14.1915 139.777 14.8052C140.366 15.4189 140.661 16.422 140.661 17.8145H134.845L134.809 17.4782H138.433C138.445 16.8999 138.41 16.3689 138.327 15.885C138.245 15.3894 138.115 14.994 137.938 14.699C137.762 14.4039 137.526 14.2564 137.231 14.2564C136.819 14.2564 136.465 14.516 136.171 15.0353C135.888 15.5546 135.717 16.4161 135.658 17.6198L135.711 17.726C135.699 17.8677 135.687 18.0152 135.676 18.1686C135.676 18.322 135.676 18.4813 135.676 18.6465C135.676 19.4608 135.788 20.1217 136.011 20.6292C136.247 21.1367 136.542 21.5084 136.895 21.7444C137.249 21.9687 137.608 22.0808 137.974 22.0808C138.221 22.0808 138.475 22.0454 138.734 21.9746C139.005 21.8919 139.276 21.7503 139.547 21.5497C139.818 21.3373 140.071 21.0422 140.307 20.6646L140.625 20.7708C140.484 21.2193 140.26 21.6559 139.954 22.0808C139.647 22.5056 139.258 22.8538 138.787 23.1252C138.315 23.3966 137.75 23.5323 137.09 23.5323C136.288 23.5323 135.581 23.3612 134.968 23.019C134.356 22.6767 133.872 22.1575 133.519 21.4612C133.177 20.7649 133.006 19.8798 133.006 18.8059C133.006 17.7083 133.189 16.7937 133.554 16.062C133.931 15.3303 134.444 14.7875 135.092 14.4334C135.752 14.0676 136.501 13.8847 137.337 13.8847Z" fill="#020618"/>
<path d="M145.772 14.1325V14.5042C145.513 14.5042 145.283 14.5219 145.083 14.5574C144.894 14.581 144.765 14.6636 144.694 14.8052C144.635 14.9468 144.658 15.1769 144.765 15.4956L146.444 20.7531L146.214 21.0009L148.282 14.1148L148.636 14.2741L145.931 23.3199C145.743 23.3081 145.554 23.3022 145.366 23.3022C145.177 23.3022 144.983 23.3081 144.782 23.3199L141.989 15.4956C141.824 15.0235 141.641 14.7403 141.441 14.6459C141.252 14.5515 141.093 14.5042 140.964 14.5042V14.1325C141.341 14.1679 141.73 14.1974 142.131 14.221C142.543 14.2328 142.991 14.2387 143.474 14.2387C143.839 14.2387 144.222 14.2269 144.623 14.2033C145.036 14.1797 145.419 14.1561 145.772 14.1325ZM155 14.1325V14.4865C154.776 14.5456 154.564 14.6813 154.364 14.8937C154.163 15.1061 153.975 15.4779 153.798 16.0089L151.447 23.3199C151.258 23.3081 151.064 23.3022 150.863 23.3022C150.675 23.3022 150.486 23.3081 150.298 23.3199L147.805 16.5046L148.282 14.1148C148.495 14.1266 148.707 14.1325 148.919 14.1325C149.143 14.1207 149.361 14.1148 149.573 14.1148L151.995 21.2665L151.8 21.0717L152.985 17.3189C153.185 16.6698 153.262 16.1446 153.215 15.7434C153.167 15.3421 153.026 15.0412 152.79 14.8406C152.555 14.64 152.236 14.5219 151.836 14.4865V14.1325C152.024 14.1443 152.225 14.1561 152.437 14.1679C152.661 14.1679 152.879 14.1738 153.091 14.1856C153.315 14.1856 153.503 14.1856 153.657 14.1856C153.892 14.1856 154.134 14.1797 154.381 14.1679C154.641 14.1561 154.847 14.1443 155 14.1325Z" fill="#020618"/>
<rect y="3" width="26.8398" height="26.8398" rx="13.4199" fill="#AC7121"/>
<path d="M7.08568 18.916C7.08568 19.417 7.13936 19.7883 7.24672 20.0299C7.36302 20.2714 7.5688 20.3922 7.86403 20.3922C8.06981 20.3922 8.26216 20.3609 8.44109 20.2983C8.62897 20.2356 8.77212 20.1685 8.87053 20.097C8.89737 20.0791 8.92868 20.0791 8.96447 20.097C9.00025 20.1059 9.03157 20.1283 9.05841 20.1641C9.08525 20.1909 9.10314 20.2222 9.11209 20.258C9.12998 20.2938 9.12998 20.3251 9.11209 20.352C8.9421 20.6293 8.71844 20.8261 8.44109 20.9424C8.17269 21.0587 7.85509 21.1169 7.48828 21.1169C6.87991 21.1169 6.45047 20.9827 6.19996 20.7143C5.94946 20.4369 5.82421 20.0075 5.82421 19.426V15.9771C5.82421 15.8697 5.81973 15.7847 5.81079 15.7221C5.80184 15.6595 5.775 15.6147 5.73027 15.5879C5.68553 15.561 5.60949 15.5476 5.50213 15.5476C5.40372 15.5387 5.26057 15.5342 5.07269 15.5342C5.04585 15.5342 5.02349 15.5074 5.00559 15.4537C4.9877 15.4 4.97428 15.3418 4.96533 15.2792C4.96533 15.2166 4.97428 15.1584 4.99217 15.1048C5.01007 15.0511 5.0369 15.0242 5.07269 15.0242C5.29636 15.0064 5.48871 14.975 5.64975 14.9303C5.81079 14.8766 5.94499 14.7961 6.05235 14.6887C6.16865 14.5814 6.25812 14.4382 6.32074 14.2593C6.39232 14.0714 6.45047 13.8299 6.4952 13.5346C6.50415 13.481 6.53994 13.4407 6.60256 13.4139C6.66519 13.387 6.73229 13.3736 6.80386 13.3736C6.87543 13.3736 6.93806 13.387 6.99174 13.4139C7.05437 13.4317 7.08568 13.4586 7.08568 13.4944V14.6485C7.08568 14.7916 7.09015 14.8766 7.0991 14.9035C7.11699 14.9214 7.17515 14.9303 7.27356 14.9303H8.66923C8.73186 14.9303 8.77212 14.9661 8.79001 15.0377C8.8079 15.1092 8.81685 15.1719 8.81685 15.2255C8.81685 15.2792 8.80343 15.3463 8.77659 15.4268C8.7587 15.4984 8.71396 15.5342 8.64239 15.5342H7.20646C7.14383 15.5342 7.10805 15.5521 7.0991 15.5879C7.09015 15.6147 7.08568 15.7266 7.08568 15.9234V18.916Z" fill="white"/>
<path d="M13.6762 15.9234C13.5062 15.7087 13.3228 15.5521 13.126 15.4537C12.9292 15.3463 12.6921 15.2926 12.4147 15.2926C12.1464 15.2926 11.9048 15.3329 11.6901 15.4134C11.4754 15.4939 11.2919 15.6326 11.1399 15.8294C10.9967 16.0263 10.8849 16.2947 10.8044 16.6346C10.7328 16.9746 10.697 17.404 10.697 17.9229C10.697 18.2271 10.7283 18.5268 10.7909 18.8221C10.8536 19.1084 10.943 19.3678 11.0593 19.6004C11.1846 19.8241 11.3322 20.0075 11.5022 20.1507C11.6811 20.2849 11.8869 20.352 12.1195 20.352C12.4953 20.352 12.8039 20.2893 13.0455 20.1641C13.296 20.0299 13.5062 19.8599 13.6762 19.6541V15.9234ZM14.9377 18.6476C14.9377 19.0144 14.9422 19.3141 14.9511 19.5468C14.969 19.7704 15.0093 19.9494 15.0719 20.0836C15.1435 20.2088 15.2464 20.2983 15.3806 20.352C15.5148 20.3967 15.7026 20.4191 15.9442 20.4191C15.98 20.4191 16.0068 20.4414 16.0247 20.4861C16.0515 20.5219 16.065 20.5667 16.065 20.6203C16.065 20.6651 16.056 20.7098 16.0381 20.7545C16.0202 20.7993 15.9889 20.8216 15.9442 20.8216C15.8726 20.8216 15.81 20.8261 15.7563 20.8351C15.7116 20.8351 15.6624 20.8395 15.6087 20.8485C15.564 20.8485 15.5103 20.853 15.4477 20.8619C15.394 20.8709 15.3224 20.8798 15.2329 20.8887C15.1614 20.8977 15.0629 20.9156 14.9377 20.9424C14.8124 20.9693 14.6827 20.9961 14.5485 21.0229C14.4143 21.0498 14.2891 21.0722 14.1728 21.09C14.0565 21.1079 13.9804 21.1169 13.9446 21.1169C13.873 21.1169 13.8149 21.0543 13.7702 20.929C13.7254 20.8038 13.7031 20.6293 13.7031 20.4056C13.7031 20.3609 13.6896 20.343 13.6628 20.352C13.6449 20.3609 13.627 20.3743 13.6091 20.3922C13.3318 20.6427 13.0634 20.8261 12.8039 20.9424C12.5445 21.0587 12.2269 21.1169 11.8511 21.1169C11.4575 21.1169 11.0996 21.0498 10.7775 20.9156C10.4644 20.7724 10.196 20.5756 9.97232 20.3251C9.75761 20.0657 9.58762 19.7525 9.46237 19.3857C9.34606 19.0189 9.28791 18.6074 9.28791 18.1511C9.28791 17.5517 9.38185 17.0372 9.56973 16.6078C9.75761 16.1694 10.0036 15.8115 10.3078 15.5342C10.612 15.2479 10.952 15.0377 11.3277 14.9035C11.7124 14.7693 12.0927 14.7022 12.4684 14.7022C12.6474 14.7022 12.8442 14.7245 13.0589 14.7693C13.2736 14.8051 13.4794 14.8722 13.6762 14.9706V14.1519C13.6762 13.7672 13.6673 13.4631 13.6494 13.2394C13.6315 13.0068 13.5823 12.8279 13.5018 12.7026C13.4302 12.5773 13.3139 12.4924 13.1528 12.4476C13.0008 12.4029 12.7905 12.3671 12.5221 12.3403C12.4863 12.3403 12.455 12.3179 12.4282 12.2732C12.4103 12.2284 12.4013 12.1837 12.4013 12.139C12.4013 12.0942 12.4103 12.0495 12.4282 12.0048C12.4461 11.96 12.4774 11.9377 12.5221 11.9377C12.6742 11.9287 12.8397 11.9198 13.0186 11.9108C13.1976 11.8929 13.381 11.875 13.5689 11.8571C13.7567 11.8393 13.9401 11.8124 14.1191 11.7766C14.298 11.7408 14.468 11.7006 14.629 11.6558C14.7453 11.6201 14.8214 11.629 14.8572 11.6827C14.9019 11.7274 14.9287 11.7766 14.9377 11.8303V18.6476Z" fill="white"/>
<path d="M17.6996 17.6948C17.6996 18.0348 17.7398 18.3613 17.8204 18.6745C17.9009 18.9786 18.0217 19.2515 18.1827 19.4931C18.3527 19.7257 18.5674 19.9136 18.8268 20.0567C19.0863 20.1909 19.3994 20.258 19.7662 20.258C20.0794 20.258 20.3836 20.2356 20.6788 20.1909C20.983 20.1372 21.238 20.0209 21.4437 19.842C21.4795 19.8062 21.5198 19.7973 21.5645 19.8152C21.6092 19.8241 21.6495 19.8465 21.6853 19.8823C21.7211 19.9091 21.7434 19.9449 21.7524 19.9896C21.7703 20.0343 21.7658 20.0746 21.739 20.1104C21.4437 20.504 21.0993 20.7724 20.7056 20.9156C20.312 21.0498 19.8468 21.1169 19.31 21.1169C18.9521 21.1169 18.5942 21.0632 18.2364 20.9558C17.8785 20.8485 17.552 20.6696 17.2567 20.4191C16.9704 20.1685 16.7378 19.8375 16.5589 19.426C16.38 19.0055 16.2905 18.4866 16.2905 17.8693C16.2905 17.4309 16.3621 17.0193 16.5052 16.6346C16.6573 16.241 16.872 15.9055 17.1494 15.6281C17.4357 15.3418 17.7846 15.1182 18.1961 14.9571C18.6077 14.7872 19.0818 14.7022 19.6186 14.7022C19.8781 14.7022 20.1286 14.7335 20.3701 14.7961C20.6206 14.8587 20.8398 14.9527 21.0277 15.0779C21.2245 15.1942 21.3811 15.3418 21.4974 15.5208C21.6137 15.6997 21.6719 15.901 21.6719 16.1247C21.6719 16.2857 21.6182 16.4378 21.5108 16.581C21.4035 16.7241 21.2335 16.7957 21.0009 16.7957C20.813 16.7957 20.6564 16.7465 20.5312 16.6481C20.4149 16.5496 20.3567 16.4065 20.3567 16.2186C20.3567 16.0934 20.388 15.9905 20.4507 15.91C20.5222 15.8294 20.558 15.7534 20.558 15.6818C20.558 15.5208 20.4507 15.4 20.2359 15.3195C20.0212 15.23 19.7841 15.1853 19.5247 15.1853C19.1847 15.1853 18.8984 15.2569 18.6658 15.4C18.4421 15.5431 18.2543 15.7355 18.1022 15.9771C17.959 16.2097 17.8561 16.4781 17.7935 16.7823C17.7309 17.0775 17.6996 17.3817 17.6996 17.6948Z" fill="white"/>
</svg>
